<svg xmlns="http://www.w3.org/2000/svg" viewBox="0 0 1600 700" preserveAspectRatio="xMidYMid slice"><defs><linearGradient id="s" x1="0" y1="0" x2="0" y2="1"><stop offset="0" stop-color="#7FD0F7"/><stop offset="1" stop-color="#D8F1FD"/></linearGradient></defs><rect width="1600" height="700" fill="url(#s)"/><circle cx="1360.0" cy="112.0" r="49.00000000000001" fill="#FFD95A"/><g transform="translate(1342 206) scale(1.5757010215305338)" fill="#fff" opacity="0.9"><ellipse cx="0" cy="0" rx="60" ry="26"/><circle cx="-26" cy="-18" r="26"/><circle cx="14" cy="-30" r="34"/><circle cx="44" cy="-10" r="22"/></g><g transform="translate(372 233) scale(0.8433216024868895)" fill="#fff" opacity="0.9"><ellipse cx="0" cy="0" rx="60" ry="26"/><circle cx="-26" cy="-18" r="26"/><circle cx="14" cy="-30" r="34"/><circle cx="44" cy="-10" r="22"/></g><g transform="translate(616 205) scale(1.2778596642808342)" fill="#fff" opacity="0.9"><ellipse cx="0" cy="0" rx="60" ry="26"/><circle cx="-26" cy="-18" r="26"/><circle cx="14" cy="-30" r="34"/><circle cx="44" cy="-10" r="22"/></g><g transform="translate(1180 149) scale(0.8695346932836157)" fill="#fff" opacity="0.9"><ellipse cx="0" cy="0" rx="60" ry="26"/><circle cx="-26" cy="-18" r="26"/><circle cx="14" cy="-30" r="34"/><circle cx="44" cy="-10" r="22"/></g><path d="M0 462.0 Q400.0 364.0 800.0 448.0 T1600 420.0 V700 H0Z" fill="#86D9A6"/><path d="M0 546.0 Q480.0 476.00000000000006 960.0 546.0 T1600 518.0 V700 H0Z" fill="#4FC48A"/><g transform="translate(240.0 378.0) scale(1.7)"><rect x="-34" y="0" width="68" height="96" rx="30" fill="#1CA7EC"/><text x="0" y="46" text-anchor="middle" font-size="22" fill="#fff" font-family="Arial">&#9729;</text><rect x="-9" y="-10" width="18" height="16" rx="6" fill="#8D5524"/><circle cx="0" cy="-34" r="30" fill="#8D5524"/><path d="M-30 -38 Q-28 -70 0 -68 Q28 -70 30 -38 Q14 -54 0 -52 Q-14 -54 -30 -38Z" fill="#2B1B12"/><circle cx="-11" cy="-32" r="3.2" fill="#2B1B12"/><circle cx="11" cy="-32" r="3.2" fill="#2B1B12"/><path d="M-10 -20 Q0 -11 10 -20" stroke="#2B1B12" stroke-width="3" fill="none" stroke-linecap="round"/><rect x="-46" y="58" width="92" height="52" rx="5" fill="#E6EDF3" stroke="#9FB3C4" stroke-width="3"/><circle cx="0" cy="84" r="8" fill="#1CA7EC"/><rect x="-56" y="108" width="112" height="9" rx="4" fill="#C7D4DF"/></g><g transform="translate(512.0 350.0) scale(1.9)"><rect x="-34" y="0" width="68" height="96" rx="30" fill="#FFC93C"/><text x="0" y="46" text-anchor="middle" font-size="22" fill="#fff" font-family="Arial">&#9729;</text><rect x="-9" y="-10" width="18" height="16" rx="6" fill="#C68642"/><circle cx="0" cy="-34" r="30" fill="#C68642"/><path d="M-30 -38 Q-28 -70 0 -68 Q28 -70 30 -38 Q14 -54 0 -52 Q-14 -54 -30 -38Z" fill="#2B1B12"/><circle cx="-11" cy="-32" r="3.2" fill="#2B1B12"/><circle cx="11" cy="-32" r="3.2" fill="#2B1B12"/><path d="M-10 -20 Q0 -11 10 -20" stroke="#2B1B12" stroke-width="3" fill="none" stroke-linecap="round"/><rect x="-46" y="58" width="92" height="52" rx="5" fill="#E6EDF3" stroke="#9FB3C4" stroke-width="3"/><circle cx="0" cy="84" r="8" fill="#1CA7EC"/><rect x="-56" y="108" width="112" height="9" rx="4" fill="#C7D4DF"/></g><g transform="translate(800.0 336.0) scale(2.0)"><rect x="-34" y="0" width="68" height="96" rx="30" fill="#3DD68C"/><text x="0" y="46" text-anchor="middle" font-size="22" fill="#fff" font-family="Arial">&#9729;</text><rect x="-9" y="-10" width="18" height="16" rx="6" fill="#5C3A21"/><circle cx="0" cy="-34" r="30" fill="#5C3A21"/><path d="M-30 -38 Q-28 -70 0 -68 Q28 -70 30 -38 Q14 -54 0 -52 Q-14 -54 -30 -38Z" fill="#2B1B12"/><circle cx="-11" cy="-32" r="3.2" fill="#2B1B12"/><circle cx="11" cy="-32" r="3.2" fill="#2B1B12"/><path d="M-10 -20 Q0 -11 10 -20" stroke="#2B1B12" stroke-width="3" fill="none" stroke-linecap="round"/><path d="M-30 30 Q-60 -10 -48 -50" stroke="#5C3A21" stroke-width="13" fill="none" stroke-linecap="round"/><path d="M30 30 Q60 -10 48 -50" stroke="#5C3A21" stroke-width="13" fill="none" stroke-linecap="round"/></g><g transform="translate(1088.0 350.0) scale(1.9)"><rect x="-34" y="0" width="68" height="96" rx="30" fill="#FF8A7A"/><text x="0" y="46" text-anchor="middle" font-size="22" fill="#fff" font-family="Arial">&#9729;</text><rect x="-9" y="-10" width="18" height="16" rx="6" fill="#A9714B"/><circle cx="0" cy="-34" r="30" fill="#A9714B"/><path d="M-30 -38 Q-28 -70 0 -68 Q28 -70 30 -38 Q14 -54 0 -52 Q-14 -54 -30 -38Z" fill="#2B1B12"/><circle cx="-11" cy="-32" r="3.2" fill="#2B1B12"/><circle cx="11" cy="-32" r="3.2" fill="#2B1B12"/><path d="M-10 -20 Q0 -11 10 -20" stroke="#2B1B12" stroke-width="3" fill="none" stroke-linecap="round"/><rect x="-46" y="58" width="92" height="52" rx="5" fill="#E6EDF3" stroke="#9FB3C4" stroke-width="3"/><circle cx="0" cy="84" r="8" fill="#1CA7EC"/><rect x="-56" y="108" width="112" height="9" rx="4" fill="#C7D4DF"/></g><g transform="translate(1360.0 378.0) scale(1.7)"><rect x="-34" y="0" width="68" height="96" rx="30" fill="#A78BFA"/><text x="0" y="46" text-anchor="middle" font-size="22" fill="#fff" font-family="Arial">&#9729;</text><rect x="-9" y="-10" width="18" height="16" rx="6" fill="#6F4426"/><circle cx="0" cy="-34" r="30" fill="#6F4426"/><path d="M-30 -38 Q-28 -70 0 -68 Q28 -70 30 -38 Q14 -54 0 -52 Q-14 -54 -30 -38Z" fill="#2B1B12"/><circle cx="-11" cy="-32" r="3.2" fill="#2B1B12"/><circle cx="11" cy="-32" r="3.2" fill="#2B1B12"/><path d="M-10 -20 Q0 -11 10 -20" stroke="#2B1B12" stroke-width="3" fill="none" stroke-linecap="round"/><rect x="-46" y="58" width="92" height="52" rx="5" fill="#E6EDF3" stroke="#9FB3C4" stroke-width="3"/><circle cx="0" cy="84" r="8" fill="#1CA7EC"/><rect x="-56" y="108" width="112" height="9" rx="4" fill="#C7D4DF"/></g></svg>